<svg width="158" height="32" viewBox="0 0 158 32" fill="none" xmlns="http://www.w3.org/2000/svg">
<path d="M16 1.71133C19.7793 1.71133 22.3318 3.84488 24.0645 5.42525C24.5288 5.84875 24.9177 6.25504 25.245 6.64755C25.9984 6.46822 27.5907 6.29096 28.9713 7.17277C30.8178 8.35216 31.3113 9.71678 31.3113 11.6779C31.3113 13.5962 30.6785 15.3299 29.0799 17.571C29.2155 18.2333 29.3019 18.9677 29.3019 19.7823C29.3019 23.5547 26.7008 26.6054 24.504 27.5469C22.843 28.2587 22.0144 28.5093 21.1033 28.7849C20.9161 28.8416 20.7253 28.8993 20.5231 28.9623C19.9854 29.1298 19.5395 29.3304 19.1085 29.5244L19.1085 29.5244C18.2283 29.9206 17.4104 30.2887 16 30.2887C14.5896 30.2887 13.7717 29.9206 12.8915 29.5244L12.8915 29.5244C12.4605 29.3304 12.0146 29.1298 11.4769 28.9623C11.2747 28.8993 11.0839 28.8416 10.8967 28.7849C9.98555 28.5093 9.15702 28.2587 7.49604 27.5469C5.29916 26.6054 2.69814 23.5547 2.69814 19.7823C2.69814 18.9677 2.78448 18.2333 2.92015 17.571C1.32148 15.3299 0.688718 13.5962 0.688718 11.6779C0.688718 9.71678 1.18224 8.35216 3.02874 7.17277C4.40935 6.29096 6.00156 6.46822 6.75499 6.64755C7.08226 6.25504 7.47122 5.84875 7.93554 5.42525C9.66823 3.84488 12.2207 1.71133 16 1.71133Z" fill="#ED1C24"/>
<path d="M14.963 13.2599C14.2871 12.4946 13.2983 11.3749 10.2978 11.3749C6.12667 11.3749 5.25865 15.5138 5.25865 17.1484C5.25865 18.7831 5.5874 19.6632 7.05296 20.8074C8.5602 21.9842 9.11969 23.1117 9.892 24.6682C10.1071 25.1017 10.3387 25.5685 10.6119 26.0788C11.1674 27.1167 13.5498 28.9983 16 28.9983C18.4502 28.9983 20.8326 27.1167 21.3881 26.0788C21.6613 25.5685 21.8929 25.1017 22.108 24.6682C22.8803 23.1117 23.4398 21.9842 24.947 20.8074C26.4126 19.6632 26.7413 18.7831 26.7413 17.1484C26.7413 15.5138 25.8733 11.3749 21.7022 11.3749C18.7017 11.3749 17.7129 12.4946 17.037 13.2599C16.6862 13.6572 16.4197 13.9589 16 13.9589C15.5803 13.9589 15.3138 13.6572 14.963 13.2599Z" fill="#FCFCFC"/>
<path d="M28.6644 16.0758C28.434 15.4171 28.1766 14.8532 27.9562 14.3706C27.7359 13.8882 27.5527 13.4869 27.4706 13.1532C27.3276 12.5714 27.2463 12.0098 27.1657 11.453C27.0158 10.4166 26.8682 9.39676 26.3291 8.29463C27.1761 8.17758 28.8248 8.32388 29.4972 9.64084C30.511 11.6264 29.5618 14.6437 28.6644 16.0758Z" fill="#FCFCFC"/>
<path d="M3.33557 16.0758C3.56595 15.4171 3.82343 14.8532 4.04381 14.3706C4.2641 13.8882 4.44733 13.4869 4.5294 13.1532C4.67245 12.5714 4.7537 12.0098 4.83426 11.453C4.98421 10.4166 5.13176 9.39676 5.6709 8.29463C4.82385 8.17758 3.17522 8.32388 2.50279 9.64084C1.48899 11.6264 2.4382 14.6437 3.33557 16.0758Z" fill="#FCFCFC"/>
<ellipse cx="21.1396" cy="17.3095" rx="1.86333" ry="2.83765" fill="#0A0A0A"/>
<ellipse cx="1.86333" cy="2.83765" rx="1.86333" ry="2.83765" transform="matrix(-1 0 0 1 12.7237 14.4718)" fill="#0A0A0A"/>
<ellipse cx="17.0557" cy="21.0776" rx="0.645167" ry="0.841218" transform="rotate(18.7421 17.0557 21.0776)" fill="#0A0A0A"/>
<ellipse cx="0.645167" cy="0.841218" rx="0.645167" ry="0.841218" transform="matrix(-0.946974 0.321309 0.321309 0.946974 15.285 20.0737)" fill="#0A0A0A"/>
<path d="M13.979 24.0988C13.1059 23.9857 12.4443 23.8999 12.2808 24.1573C11.8672 24.8086 13.5847 26.8904 16 26.8904C18.4153 26.8904 20.1328 24.8086 19.7192 24.1573C19.5557 23.8999 18.8941 23.9857 18.021 24.0988C17.4169 24.1771 16.7116 24.2685 16 24.2685C15.2884 24.2685 14.5831 24.1771 13.979 24.0988Z" fill="#0A0A0A"/>
<path d="M39.5586 25V7.42188H45.0898C47.2227 7.42188 49.0664 7.77734 50.6211 8.48828C52.1758 9.19922 53.375 10.2148 54.2188 11.5352C55.0625 12.8477 55.4844 14.4062 55.4844 16.2109C55.4844 18.0078 55.0625 19.5664 54.2188 20.8867C53.375 22.207 52.1758 23.2227 50.6211 23.9336C49.0664 24.6445 47.2227 25 45.0898 25H39.5586ZM42.6523 22.2812H45.207C46.7148 22.2812 47.9961 22.0469 49.0508 21.5781C50.1133 21.1016 50.9219 20.4102 51.4766 19.5039C52.0391 18.5977 52.3203 17.5 52.3203 16.2109C52.3203 14.9219 52.0391 13.8242 51.4766 12.918C50.9219 12.0117 50.1133 11.3242 49.0508 10.8555C47.9961 10.3789 46.7148 10.1406 45.207 10.1406H42.6523V22.2812ZM66.8586 25H64.3508L64.1867 23.5586C63.757 24.0898 63.2219 24.5039 62.5812 24.8008C61.9406 25.0898 61.2297 25.2344 60.4484 25.2344C59.6203 25.2344 58.882 25.0742 58.2336 24.7539C57.5852 24.4258 57.0734 23.9805 56.6984 23.418C56.3312 22.8555 56.1477 22.2148 56.1477 21.4961C56.1477 20.7383 56.3469 20.0742 56.7453 19.5039C57.1516 18.9258 57.7023 18.4727 58.3977 18.1445C59.1008 17.8164 59.9016 17.6523 60.8 17.6523C61.3469 17.6523 61.8937 17.7148 62.4406 17.8398C62.9953 17.9648 63.507 18.1406 63.9758 18.3672V17.9922C63.9758 17.4766 63.8352 17.0312 63.5539 16.6562C63.2727 16.2812 62.8937 15.9922 62.4172 15.7891C61.9406 15.5781 61.4055 15.4727 60.8117 15.4727C60.2727 15.4727 59.7336 15.5664 59.1945 15.7539C58.6555 15.9336 58.1516 16.2031 57.6828 16.5625L56.8625 14.3008C57.6125 13.8867 58.3781 13.5742 59.1594 13.3633C59.9484 13.1523 60.718 13.0469 61.468 13.0469C62.5695 13.0469 63.5227 13.2656 64.3273 13.7031C65.132 14.1328 65.7531 14.75 66.1906 15.5547C66.6359 16.3516 66.8586 17.293 66.8586 18.3789V25ZM61.0461 22.9141C61.5539 22.9141 62.0227 22.8086 62.4523 22.5977C62.8898 22.3867 63.2453 22.0938 63.5187 21.7188C63.8 21.3359 63.9484 20.8984 63.9641 20.4062V20.2773C63.5969 20.0117 63.1828 19.8086 62.7219 19.668C62.2609 19.5195 61.7961 19.4453 61.3273 19.4453C60.6086 19.4453 60.0187 19.6094 59.5578 19.9375C59.0969 20.2578 58.8664 20.6797 58.8664 21.2031C58.8664 21.5234 58.9602 21.8164 59.1477 22.082C59.3352 22.3398 59.593 22.543 59.9211 22.6914C60.257 22.8398 60.632 22.9141 61.0461 22.9141ZM76.3925 24.6953C75.5331 25.0547 74.7011 25.2344 73.8964 25.2344C73.0761 25.2344 72.3534 25.0586 71.7284 24.707C71.1112 24.3555 70.6269 23.8672 70.2753 23.2422C69.9316 22.6094 69.7597 21.875 69.7597 21.0391V15.8594H67.7089V13.2812H69.912V10.3516H72.6425V13.2812H75.9823V15.8594H72.6425V20.5117C72.6425 21.1758 72.8222 21.6992 73.1816 22.082C73.5487 22.4648 74.0058 22.6562 74.5527 22.6562C75.037 22.6562 75.5175 22.5078 75.9941 22.2109L76.3925 24.6953ZM88.2111 25H85.7033L85.5392 23.5586C85.1095 24.0898 84.5744 24.5039 83.9338 24.8008C83.2931 25.0898 82.5822 25.2344 81.8009 25.2344C80.9728 25.2344 80.2345 25.0742 79.5861 24.7539C78.9377 24.4258 78.4259 23.9805 78.0509 23.418C77.6838 22.8555 77.5002 22.2148 77.5002 21.4961C77.5002 20.7383 77.6994 20.0742 78.0978 19.5039C78.5041 18.9258 79.0548 18.4727 79.7502 18.1445C80.4533 17.8164 81.2541 17.6523 82.1525 17.6523C82.6994 17.6523 83.2463 17.7148 83.7931 17.8398C84.3478 17.9648 84.8595 18.1406 85.3283 18.3672V17.9922C85.3283 17.4766 85.1877 17.0312 84.9064 16.6562C84.6252 16.2812 84.2463 15.9922 83.7697 15.7891C83.2931 15.5781 82.758 15.4727 82.1642 15.4727C81.6252 15.4727 81.0861 15.5664 80.547 15.7539C80.008 15.9336 79.5041 16.2031 79.0353 16.5625L78.215 14.3008C78.965 13.8867 79.7306 13.5742 80.5119 13.3633C81.3009 13.1523 82.0705 13.0469 82.8205 13.0469C83.922 13.0469 84.8752 13.2656 85.6798 13.7031C86.4845 14.1328 87.1056 14.75 87.5431 15.5547C87.9884 16.3516 88.2111 17.293 88.2111 18.3789V25ZM82.3986 22.9141C82.9064 22.9141 83.3752 22.8086 83.8048 22.5977C84.2423 22.3867 84.5978 22.0938 84.8713 21.7188C85.1525 21.3359 85.3009 20.8984 85.3166 20.4062V20.2773C84.9494 20.0117 84.5353 19.8086 84.0744 19.668C83.6134 19.5195 83.1486 19.4453 82.6798 19.4453C81.9611 19.4453 81.3713 19.6094 80.9103 19.9375C80.4494 20.2578 80.2189 20.6797 80.2189 21.2031C80.2189 21.5234 80.3127 21.8164 80.5002 22.082C80.6877 22.3398 80.9455 22.543 81.2736 22.6914C81.6095 22.8398 81.9845 22.9141 82.3986 22.9141ZM101.624 25H90.3739V7.42188H93.4677V22.2812H101.624V25ZM113.238 23.6406C111.777 24.7031 110.18 25.2344 108.445 25.2344C107.187 25.2344 106.058 24.9609 105.058 24.4141C104.058 23.8672 103.265 23.1211 102.68 22.1758C102.101 21.2227 101.812 20.1523 101.812 18.9648C101.812 17.832 102.074 16.8203 102.597 15.9297C103.129 15.0391 103.851 14.3359 104.765 13.8203C105.687 13.3047 106.726 13.0469 107.883 13.0469C109.086 13.0469 110.14 13.332 111.047 13.9023C111.961 14.4648 112.672 15.25 113.18 16.2578C113.687 17.2578 113.941 18.4219 113.941 19.75V20.125H104.918C105.058 20.6562 105.305 21.125 105.656 21.5312C106.015 21.9375 106.461 22.2539 106.992 22.4805C107.523 22.707 108.121 22.8203 108.785 22.8203C110.035 22.8203 111.191 22.4141 112.254 21.6016L113.238 23.6406ZM104.801 18.4375H111.269C111.207 17.8516 111.027 17.3398 110.73 16.9023C110.441 16.4648 110.062 16.125 109.594 15.8828C109.133 15.6328 108.613 15.5078 108.035 15.5078C107.449 15.5078 106.926 15.6328 106.465 15.8828C106.004 16.1328 105.629 16.4805 105.34 16.9258C105.051 17.3633 104.871 17.8672 104.801 18.4375ZM134.216 25H131.333V18.9883C131.333 17.9258 131.11 17.1016 130.665 16.5156C130.227 15.9219 129.606 15.625 128.802 15.625C127.989 15.625 127.352 15.9219 126.891 16.5156C126.438 17.1094 126.212 17.9336 126.212 18.9883V25H123.329V18.9883C123.329 17.9258 123.106 17.1016 122.661 16.5156C122.216 15.9219 121.595 15.625 120.798 15.625C119.977 15.625 119.337 15.9219 118.876 16.5156C118.423 17.1094 118.196 17.9336 118.196 18.9883V25H115.313V13.2812H117.622L117.727 15.2734C118.126 14.5469 118.653 13.9961 119.309 13.6211C119.973 13.2383 120.755 13.0469 121.653 13.0469C122.583 13.0469 123.384 13.25 124.055 13.6562C124.735 14.0547 125.255 14.6289 125.614 15.3789C126.005 14.6133 126.54 14.0352 127.22 13.6445C127.899 13.2461 128.7 13.0469 129.622 13.0469C131.067 13.0469 132.192 13.5078 132.997 14.4297C133.809 15.3438 134.216 16.6172 134.216 18.25V25ZM147.488 25H145.109L145.015 23.1133C144.593 23.8008 144.039 24.3281 143.351 24.6953C142.664 25.0547 141.851 25.2344 140.914 25.2344C139.406 25.2344 138.214 24.7734 137.339 23.8516C136.472 22.9219 136.039 21.6445 136.039 20.0195V13.2812H138.921V19.4688C138.921 20.4453 139.168 21.2188 139.66 21.7891C140.16 22.3516 140.835 22.6328 141.687 22.6328C142.57 22.6328 143.277 22.332 143.808 21.7305C144.339 21.1289 144.605 20.3281 144.605 19.3281V13.2812H147.488V25ZM152.54 25H149.657V13.2812H152.165L152.27 15.4141C152.676 14.6641 153.223 14.082 153.911 13.668C154.606 13.2539 155.403 13.0469 156.301 13.0469C156.536 13.0469 156.774 13.0625 157.016 13.0938C157.266 13.125 157.512 13.1719 157.754 13.2344L157.403 15.8359C156.918 15.6953 156.45 15.625 155.997 15.625C155.309 15.625 154.704 15.7852 154.18 16.1055C153.665 16.4258 153.262 16.8711 152.973 17.4414C152.684 18.0039 152.54 18.6602 152.54 19.4102V25Z" fill="#0A0A0A"/>
</svg>
